<svg xmlns="http://www.w3.org/2000/svg" width="95" height="26" fill="none"><mask id="a" width="75" height="16" x="19.16" y="4.76" fill="#000" maskUnits="userSpaceOnUse"><path fill="#fff" d="M19.16 4.76h75v16h-75z"/><path d="M25.14 20.24q-1.48 0-2.6-.54a4.24 4.24 0 0 1-1.74-1.54q-.62-1-.64-2.38h2.24q.02 1.06.72 1.82.72.74 2 .74 1.18 0 1.84-.54.66-.56.66-1.44 0-.74-.4-1.22-.38-.5-1.2-.88-.82-.4-2.12-.82-1.74-.56-2.56-1.54-.82-1-.82-2.44 0-1.66 1.2-2.68t3.3-1.02q2.04 0 3.28 1.06 1.24 1.04 1.28 2.9h-2.26a1.8 1.8 0 0 0-.28-.96 2.14 2.14 0 0 0-.8-.78q-.52-.32-1.28-.32-.94-.02-1.58.46-.64.46-.64 1.26 0 .98.78 1.54.78.54 2.54 1.12a9 9 0 0 1 1.94.88 3.7 3.7 0 0 1 1.34 1.3q.5.78.5 2 0 1.12-.56 2.04-.56.9-1.62 1.44-1.04.54-2.52.54M36.412 20V6h4.74q1.6 0 2.64.56 1.04.54 1.54 1.5t.5 2.2-.5 2.2-1.54 1.52q-1.04.54-2.64.54h-2.62V20zm2.12-7.38h2.52q1.36 0 1.98-.64.64-.64.64-1.72 0-1.06-.64-1.7-.62-.66-1.98-.66h-2.52zM56.984 20.24q-1.7 0-2.94-.88t-1.9-2.5-.66-3.86.66-3.86 1.9-2.5 2.94-.88q1.72 0 2.94.88 1.24.88 1.9 2.5t.66 3.86-.66 3.86-1.9 2.5q-1.22.88-2.94.88m0-2q1.5 0 2.42-1.34.92-1.36.92-3.9t-.92-3.88q-.92-1.36-2.42-1.36-1.52 0-2.44 1.36-.9 1.34-.9 3.88t.9 3.9q.92 1.34 2.44 1.34M71.917 20V7.9h-3.76V6h9.64v1.9h-3.76V20zM89.109 20.24q-1.48 0-2.6-.54a4.24 4.24 0 0 1-1.74-1.54q-.62-1-.64-2.38h2.24q.02 1.06.72 1.82.72.74 2 .74 1.18 0 1.84-.54.66-.56.66-1.44 0-.74-.4-1.22-.381-.5-1.2-.88-.82-.4-2.12-.82-1.74-.56-2.56-1.54-.82-1-.82-2.44 0-1.66 1.2-2.68t3.3-1.02q2.04 0 3.28 1.06 1.24 1.04 1.28 2.9h-2.26a1.8 1.8 0 0 0-.28-.96 2.14 2.14 0 0 0-.8-.78q-.52-.32-1.28-.32-.94-.02-1.58.46-.64.46-.64 1.26 0 .98.78 1.54.78.54 2.54 1.12a9 9 0 0 1 1.94.88 3.7 3.7 0 0 1 1.34 1.3q.5.78.5 2 0 1.12-.56 2.04-.561.9-1.62 1.44-1.041.54-2.52.54"/></mask><path fill="#212121" d="M25.14 20.24q-1.48 0-2.6-.54a4.24 4.24 0 0 1-1.74-1.54q-.62-1-.64-2.38h2.24q.02 1.06.72 1.82.72.74 2 .74 1.18 0 1.84-.54.66-.56.66-1.44 0-.74-.4-1.22-.38-.5-1.2-.88-.82-.4-2.12-.82-1.74-.56-2.56-1.54-.82-1-.82-2.44 0-1.66 1.2-2.68t3.3-1.02q2.04 0 3.28 1.06 1.24 1.04 1.28 2.9h-2.26a1.8 1.8 0 0 0-.28-.96 2.14 2.14 0 0 0-.8-.78q-.52-.32-1.28-.32-.94-.02-1.58.46-.64.46-.64 1.26 0 .98.78 1.54.78.54 2.54 1.12a9 9 0 0 1 1.94.88 3.7 3.7 0 0 1 1.34 1.3q.5.78.5 2 0 1.12-.56 2.04-.56.9-1.62 1.44-1.04.54-2.52.54M36.412 20V6h4.74q1.6 0 2.64.56 1.04.54 1.54 1.5t.5 2.2-.5 2.2-1.54 1.52q-1.04.54-2.64.54h-2.62V20zm2.12-7.38h2.52q1.36 0 1.98-.64.64-.64.64-1.72 0-1.06-.64-1.7-.62-.66-1.98-.66h-2.52zM56.984 20.24q-1.7 0-2.94-.88t-1.9-2.5-.66-3.86.66-3.86 1.9-2.5 2.94-.88q1.72 0 2.94.88 1.24.88 1.9 2.5t.66 3.86-.66 3.86-1.9 2.5q-1.22.88-2.94.88m0-2q1.5 0 2.42-1.34.92-1.36.92-3.9t-.92-3.88q-.92-1.36-2.42-1.36-1.52 0-2.44 1.36-.9 1.34-.9 3.88t.9 3.9q.92 1.34 2.44 1.34M71.917 20V7.9h-3.76V6h9.64v1.9h-3.76V20zM89.109 20.24q-1.48 0-2.6-.54a4.24 4.24 0 0 1-1.74-1.54q-.62-1-.64-2.38h2.24q.02 1.06.72 1.82.72.74 2 .74 1.18 0 1.84-.54.66-.56.66-1.44 0-.74-.4-1.22-.381-.5-1.2-.88-.82-.4-2.12-.82-1.74-.56-2.56-1.54-.82-1-.82-2.44 0-1.66 1.2-2.68t3.3-1.02q2.04 0 3.28 1.06 1.24 1.04 1.28 2.9h-2.26a1.8 1.8 0 0 0-.28-.96 2.14 2.14 0 0 0-.8-.78q-.52-.32-1.28-.32-.94-.02-1.58.46-.64.46-.64 1.26 0 .98.78 1.54.78.54 2.54 1.12a9 9 0 0 1 1.94.88 3.7 3.7 0 0 1 1.34 1.3q.5.78.5 2 0 1.12-.56 2.04-.561.9-1.62 1.44-1.041.54-2.52.54"/><path stroke="#212121" stroke-width=".4" d="M25.14 20.24q-1.48 0-2.6-.54a4.24 4.24 0 0 1-1.74-1.54q-.62-1-.64-2.38h2.24q.02 1.06.72 1.82.72.74 2 .74 1.18 0 1.84-.54.66-.56.66-1.44 0-.74-.4-1.22-.38-.5-1.2-.88-.82-.4-2.12-.82-1.74-.56-2.56-1.54-.82-1-.82-2.44 0-1.66 1.2-2.68t3.3-1.02q2.04 0 3.28 1.06 1.24 1.04 1.28 2.9h-2.26a1.8 1.8 0 0 0-.28-.96 2.14 2.14 0 0 0-.8-.78q-.52-.32-1.28-.32-.94-.02-1.58.46-.64.46-.64 1.26 0 .98.78 1.54.78.54 2.54 1.12a9 9 0 0 1 1.94.88 3.7 3.7 0 0 1 1.34 1.3q.5.78.5 2 0 1.12-.56 2.04-.56.9-1.62 1.44-1.04.54-2.52.54ZM36.412 20V6h4.74q1.6 0 2.64.56 1.04.54 1.54 1.5t.5 2.2-.5 2.2-1.54 1.52q-1.04.54-2.64.54h-2.62V20zm2.12-7.38h2.52q1.36 0 1.98-.64.64-.64.64-1.72 0-1.06-.64-1.7-.62-.66-1.98-.66h-2.52zM56.984 20.24q-1.7 0-2.94-.88t-1.9-2.5-.66-3.86.66-3.86 1.9-2.5 2.94-.88q1.72 0 2.94.88 1.24.88 1.9 2.5t.66 3.86-.66 3.86-1.9 2.5q-1.22.88-2.94.88Zm0-2q1.5 0 2.42-1.34.92-1.36.92-3.9t-.92-3.88q-.92-1.36-2.42-1.36-1.52 0-2.44 1.36-.9 1.34-.9 3.88t.9 3.9q.92 1.34 2.44 1.34ZM71.917 20V7.9h-3.76V6h9.64v1.9h-3.76V20zM89.109 20.24q-1.48 0-2.6-.54a4.24 4.24 0 0 1-1.74-1.54q-.62-1-.64-2.38h2.24q.02 1.06.72 1.82.72.74 2 .74 1.18 0 1.84-.54.66-.56.66-1.44 0-.74-.4-1.22-.381-.5-1.2-.88-.82-.4-2.12-.82-1.74-.56-2.56-1.54-.82-1-.82-2.44 0-1.66 1.2-2.68t3.3-1.02q2.04 0 3.28 1.06 1.24 1.04 1.28 2.9h-2.26a1.8 1.8 0 0 0-.28-.96 2.14 2.14 0 0 0-.8-.78q-.52-.32-1.28-.32-.94-.02-1.58.46-.64.46-.64 1.26 0 .98.78 1.54.78.54 2.54 1.12a9 9 0 0 1 1.94.88 3.7 3.7 0 0 1 1.34 1.3q.5.78.5 2 0 1.12-.56 2.04-.561.9-1.62 1.44-1.041.54-2.52.54Z" mask="url(#a)"/><path stroke="#212121" stroke-width="2.5" d="M6 4v8"/><path stroke="#212121" stroke-linejoin="bevel" stroke-width="2.5" d="m1 9 5 4 5-4"/><circle cx="6" cy="18" r="2" fill="#212121"/></svg>